<?xml version="1.0" standalone="no"?>
<!DOCTYPE svg PUBLIC "-//W3C//DTD SVG 1.1//EN" "http://www.w3.org/Graphics/SVG/1.1/DTD/svg11.dtd">
<svg xmlns="http://www.w3.org/2000/svg" xmlns:xlink="http://www.w3.org/1999/xlink" width="715.70068" height="592.84851" version="1.0" viewBox="0 0 715.70068 592.84851">
  <defs>
    <path id="a" fill-rule="evenodd" stroke-width="3.26521015" d="M154.88908 265.78328h14.48081l-3.6202 6.27038-3.6202 6.27037-3.62021-6.27037z"/>
  </defs>
  <path fill="#d92822" fill-rule="evenodd" d="M668.88458557 560.71146396H48.2389819l155.161398-255.3880539L358.56178725 49.93535172l155.161398 255.38805058z"/>
  <path fill="none" stroke="#000" stroke-linejoin="round" stroke-width="40" d="M357.133218 19.993659 19.990357 572.850802h675.714281L357.133218 19.993659z"/>
  <path fill-rule="evenodd" stroke="#fff" stroke-width="2.8195" d="M369.1577566 196.00442845c0 6.60648353-5.35559964 11.96209446-11.96208317 11.96209446-6.60647225 0-11.96208318-5.35561093-11.96208318-11.96209446 0-6.60647225 5.35561093-11.96208317 11.96208318-11.96208317 6.60648353 0 11.96208317 5.35561092 11.96208317 11.96208317z"/>
  <path fill-rule="evenodd" stroke="#fff" stroke-width="2.5000075" d="M475.276242 376.56919303c0 8.72755558-7.07506398 15.80263445-15.80261955 15.80263445-8.72754067 0-15.80261954-7.07507887-15.80261954-15.80263445 0-8.72754067 7.07507887-15.80261954 15.80261954-15.80261954 8.72755557 0 15.80261954 7.07507887 15.80261954 15.80261954z"/>
  <path fill-rule="evenodd" stroke="#fff" stroke-width="2.5" d="m329.921558 151.052642 19.69797 29.7995c-4.41721 4.69411-8.35191 9.62947-10.10152 15.65737l-38.89088-.50508c1.56798-24.00044 14.4126-35.59658 29.29443-44.95179zm55.30584-.00001-19.69797 29.7995c4.41721 4.69411 8.35191 9.62947 10.10152 15.65737l38.89088-.50508c-1.56798-24.00044-14.4126-35.59658-29.29443-44.95179zm2.52881 89.68239-19.538-30.55616c-6.36821 2.65843-15.69363 2.45262-21.65686-.50096l-20.52773 29.86097c19.6854 11.24439 44.08428 10.21895 61.72259 1.19615z"/>
  <g stroke="#fff">
    <use xlink:href="#a" fill-rule="evenodd" stroke-width="3.26521015" transform="matrix(.90791 .50819 -.27519 .49164 194.226933 127.236833)"/>
    <use xlink:href="#a" fill-rule="evenodd" stroke-width="3.26521015" transform="matrix(1.01092 .24616 -.1333 .54742 185.500833 166.172283)"/>
    <use xlink:href="#a" fill-rule="evenodd" stroke-width="3.26521015" transform="matrix(1.04046 0 0 .56342 187.644363 204.225643)"/>
    <use xlink:href="#a" fill-rule="evenodd" stroke-width="3.26521015" transform="matrix(1.01453 -.23082 .12499 .54938 201.514773 242.645993)"/>
    <use xlink:href="#a" fill-rule="evenodd" stroke-width="3.26521015" transform="matrix(.941 -.44395 .2404 .50956 228.654543 277.071343)"/>
    <path fill="none" stroke-width="3" d="M269.276093 340.350823c3.5757-1.55731 4.57172-5.20026 2.61644-8.4414-1.48186-2.58367-2.09814-6.80571 2.02942-6.57581 2.7546-1.19355 8.98443-.30542 8.01698-4.87334.12073-3.27901-1.9062-6.67309-.68205-9.89105 2.6974-2.65626 9.05379-.49224 10.25668-4.76246-.27364-3.25056-1.14638-6.53898-1.02489-9.84243 1.67959-4.02145 7.57223-2.12805 10.66304-4.60732 1.37785-3.45683-1.27105-7.46501-.90775-11.21664 1.6311-4.03073 8.39513-1.67733 11.06336-5.21369.50345-3.95265-4.09997-10.81115.88519-12.67461 4.07133-.45331 9.39078-1.95217 8.04617-7.22493.0363-.72544.0725-1.45089.10881-2.17633m124.51609 87.67856c-3.5757-1.55731-4.57172-5.20026-2.61644-8.4414 1.48186-2.58367 2.09814-6.80571-2.02942-6.57581-2.7546-1.19355-8.98443-.30542-8.01698-4.87334-.12073-3.27901 1.9062-6.67309.68205-9.89105-2.6974-2.65626-9.05379-.49224-10.25668-4.76246.27364-3.25056 1.14638-6.53898 1.02489-9.84243-1.67959-4.02145-7.57223-2.12805-10.66304-4.60732-1.37785-3.45683 1.27105-7.46501.90775-11.21664-1.6311-4.03073-8.39513-1.67733-11.06336-5.21369-.50345-3.95265 4.09997-10.81115-.88519-12.67461-4.07133-.45331-9.39078-1.95217-8.04617-7.22493-.0363-.72544-.0725-1.45089-.10881-2.17633m-38.04167 100.11342c-2.24444-3.18957-1.20087-6.81918 2.15466-8.57092 2.60926-1.43631 5.33113-4.72216 1.68596-6.67213-1.73225-2.45187-7.51539-4.93277-4.31371-8.33146 1.60196-2.86361 5.09822-4.70871 5.72593-8.09394-.92277-3.67153-7.47747-5.12843-6.28443-9.40141 1.92402-2.63423 4.37947-4.98926 5.99348-7.87413.65651-4.30837-5.36135-5.75526-6.7122-9.4802.62064-3.66918 4.96749-5.71541 6.60803-9.10885.70274-4.29108-6.29863-5.79817-6.73884-10.20629 1.62535-3.63802 9.12386-7.10254 5.8347-11.28653-3.24187-2.50429-7.00617-6.55068-3.11581-10.35529.34625-.63851.6925-1.27703 1.03875-1.91554m40.20984 99.74196c-2.98162-2.51413-2.89513-6.2898-.0952-8.8371 2.15836-2.05249 3.9554-5.92238-.0658-6.88152-2.2987-1.9309-8.52255-2.85997-6.29016-6.96098.82128-3.1768 3.73355-5.85016 3.47997-9.28374-1.82589-3.31629-8.53561-3.05885-8.46814-7.49474 1.19107-3.03683 2.96709-5.93876 3.79462-9.13917-.46043-4.33372-6.6484-4.20309-8.90189-7.46219-.33261-3.7064 3.35117-6.79054 4.07506-10.48957-.41132-4.32874-7.56579-4.00628-9.11227-8.15763.64702-3.93171 7.01831-9.18881 2.7735-12.39909-3.77204-1.59778-8.4414-4.55418-5.64616-9.22286.17254-.70555.34507-1.41112.51761-2.11668m-60.09866 98.08344c3.13515-2.31984 3.28845-6.09339.65585-8.81322-2.02375-2.18534-3.57156-6.16148.50235-6.86349 2.4166-1.78113 8.68687-2.31335 6.71924-6.54777-.61802-3.2225-3.35476-6.0753-2.88379-9.48587 2.03268-3.19373 8.71254-2.51098 8.92671-6.94221-.99595-3.1063-2.58422-6.11508-3.20698-9.36158.73453-4.29576 6.90175-3.77268 9.35752-6.88219.56716-3.67784-2.91347-6.98954-3.40114-10.72704.6852-4.29392 7.80479-3.51807 9.61159-7.56292-.39619-3.96483-6.421-9.61568-1.98101-12.55009 3.86584-1.35519 8.7134-4.00929 6.22008-8.84596-.12741-.71509-.25482-1.43018-.38223-2.14526"/>
    <path fill-rule="evenodd" stroke-width="2.5" d="M494.0713484 462.1796219v16.16245h60.60915l-3.53554 11.49048s.0104 1.62907.6417 2.38669c.63134.75761 3.14638.0124 3.14638.0124l33.58757-21.97082-33.33503-23.2335s-2.39912-.25254-3.53554.50507c-1.13642.75761-1.01015 2.52538-1.01015 2.52538l4.04061 12.12183h-60.60915z"/>
    <path fill-rule="evenodd" stroke-width="2.5" d="m427.1487384 411.1669219-18.43528.25254-14.89975 23.73858s-7.51301 3.91434-11.11168 2.02031c-3.59867-1.89403-3.283-9.59645-3.283-9.59645l19.1929-28.28427 5.80838-2.27284 57.83123.50507 4.54569 2.77792 21.46574 25.50636 24.74874-.00001v15.15229h-33.58757l-15.90991-18.68782-12.6269 25.75889 39.90102 78.53936h-21.2132l-38.3858-67.17515-1.01015 4.79823-2.02031 27.27412-3.03045 6.06091-4.79823 3.03046-71.46829.25254 6.56599-12.37437 10.85914-5.3033h41.92133l.75762-8.83883 3.03045-32.57742 15.15229-30.55712zM214.990363 472.493673c4.94545.334 9.76422 1.38779 14.41468 2.96577 5.18067.9558 10.41508 1.05827 15.59171.0125 5.73069-1.42609 13.75143-1.97977 17.55423-5.89121 1.46195-4.27142 2.00556-10.4453 7.06835-11.93893 4.67834-1.61267 9.38439-3.8158 9.92506-9.36536-2.67658-8.80577-5.89532-17.95944-4.11811-27.27733.32397-4.34916 2.10543-8.5516 2.19032-12.86067-.71692-4.96266-2.13311-9.87369-1.91196-14.93046 5.92883-3.08537 5.76221 5.65593 6.71127 9.3082 1.23798 9.4518-2.37938 18.78937-2.04951 28.19943 5.36006-.8789 3.93352-8.25439 5.65989-12.31261 1.0419-7.66002.17109-15.49989-1.16834-23.07285-2.29298-4.18187-3.89114-9.18817-7.95131-12.0849-3.79338-3.93991-8.00055-7.44313-13.07836-9.59003-6.1326-3.71051-13.30253-4.84731-20.06735-6.90617-5.98515-.33197-12.21903-.0676-18.16264.85577-6.11929 1.50232-11.95765 3.81444-17.49794 6.78968-6.59359 2.44466-10.8837 8.40905-15.18786 13.64531-4.2083 5.0069-5.86446 11.57512-7.78832 17.66583.81833 5.07718 1.23217 10.48396 2.87095 15.32752 2.68525 6.95946 3.28616-3.18513 2.92217-5.84777.20741-5.15702-1.97659-11.29159.0236-15.82933 2.12306-4.8767 6.7407-1.37726 5.09593 2.80197-.0884 6.42995.35946 12.84964.73929 19.26424-2.5122 6.38612-4.1101 13.13353-5.49136 19.8338-.26558 5.42873 1.49794 11.42852 6.97904 13.62382 4.97719.92122 11.33498 2.80897 13.0819 8.08155 1.21489 3.17743 2.42982 6.35485 3.6447 9.53228z"/>
    <path fill="#df271f" fill-rule="evenodd" stroke-width="2.5" d="M226.776083 423.565113c-3.80325-1.20482-8.39243-1.60003-12.52409-.45622-2.51098.48574-5.29563.69647-7.29059 2.48356-2.6838 1.44752-3.48078 4.75209-3.47069 7.58121-.0837 3.44907 1.02203 7.01947 3.51619 9.48009 1.74681 2.09676 3.85794 4.02209 6.53321 4.80498 2.6287.82731 5.53187.395 7.97145-.8078 1.7083-.62139 3.63096-1.37505 4.38966-3.1808 2.06904-3.57789 4.80097-7.12756 4.91066-11.4364.18131-1.62269.0829-3.35463-.91889-4.71535-.85372-1.39237-1.63243-3.283-3.11691-3.75327zm22.9099-.52015c3.80325-1.20482 8.39243-1.60003 12.52409-.45622 2.51098.48574 5.29563.69647 7.29059 2.48356 2.6838 1.44752 3.48078 4.75209 3.47069 7.58121.0837 3.44907-1.02203 7.01947-3.51619 9.48009-1.74681 2.09676-3.85794 4.02209-6.53321 4.80498-2.6287.82731-5.53187.395-7.97145-.8078-1.7083-.62139-3.63096-1.37505-4.38966-3.1808-2.06904-3.57789-4.80097-7.12756-4.91066-11.4364-.18131-1.62269-.0829-3.35463.91889-4.71535.85372-1.39237 1.63243-3.283 3.11691-3.75327zm-22.19562 42.84156c2.97099-.19476 5.93168-.62668 8.90989-.65789 3.10146.33834 6.20293.67669 9.30439 1.01503.24078-2.28518.94265-4.57398.50149-6.88116-.39441-3.41051-.56461-6.88009-1.48894-10.2014-.51721-1.61704-1.47249-3.05831-2.52989-4.36504-1.1212-1.12345-2.54541-1.87383-3.74315-2.90722-1.25521-1.1514-2.70687.0396-4.03868.3122-1.43548.23697-2.55832.86004-3.11738 2.25167-1.06548 1.53454-1.95163 3.19268-2.49391 4.98508-.84989 2.33152-1.86791 4.64435-2.27351 7.1027-.13804 1.70871-.34317 3.41199-.43761 5.12416.46912 1.40728.93823 2.81458 1.4073 4.22187z"/>
    <path fill-rule="evenodd" stroke-width="2.5" d="M198.6017284 470.2608419v6.31346l-37.62818-12.12183-12.37437.25254 2.27284-3.53554.75761-8.33376.75762-1.76776 5.3033 4.04061 40.91118 15.15228zm77.2766646-4.1668789v6.31346l37.62818-12.12183 12.37437.25254-2.27284-3.53554-.75761-8.33376-.75762-1.76776-5.3033 4.04061-40.91118 15.15228zm-67.68022 36.87058v-6.31346l-37.62818 12.12183-12.37437-.25254 2.27284 3.53554.75761 8.33376.75762 1.76776 5.3033-4.04061 40.91118-15.15228zm58.33631.50507v-6.31346l37.62818 12.12183 12.37437-.25254-2.27284 3.53554-.75761 8.33376-.75762 1.76776-5.3033-4.04061-40.91118-15.15228zm-64.14468-41.03743c3.88702 7.79116 8.25593 15.40403 10.98912 23.70825 2.55449 2.79292 6.35638 3.86816 9.33423 6.08086 4.2189 1.67712 8.86201 1.54748 13.31124 1.98486 9.45104.1695 19.07312-2.76077 26.47832-8.70145 3.55597-2.84012 3.85739-7.61537 5.15386-11.64448.72856-2.52279 1.87152-6.96763 2.36038-8.28484-1.11256 7.67136-2.10467 15.36023-3.30079 23.01939-1.91586 3.71996-3.02141 8.29896-6.88349 10.56319-3.15735 2.69546-6.19121 5.86647-10.36288 6.90065-5.22925 2.20038-10.99283 2.8058-16.61535 2.59287-4.4724-.48176-9.14625-1.25776-13.03496-3.63994-4.92594-3.45236-6.98113-9.37738-8.62-14.89702-2.91724-9.23364-5.86175-18.45843-8.80968-27.68234z"/>
  </g>
</svg>